<svg width="32" height="32" viewBox="0 0 32 32" fill="none" xmlns="http://www.w3.org/2000/svg">
<path d="M19.8819 16.2463C19.8819 13.8876 18.0033 12.0007 15.655 12.0007C13.3068 12.0007 11.4282 13.8876 11.4282 16.2463C11.4282 18.605 13.3068 20.492 15.655 20.492C18.0033 20.492 19.8819 18.605 19.8819 16.2463ZM22.0736 16.2463C22.0736 19.863 19.2557 22.6934 15.655 22.6934C12.0544 22.6934 9.23645 19.863 9.23645 16.2463C9.23645 12.6297 12.0544 9.79924 15.655 9.79924C19.2557 9.79924 22.0736 12.6297 22.0736 16.2463ZM23.7956 9.48474C23.7956 10.4282 23.1694 11.0572 22.2301 11.0572C21.2908 11.0572 20.6646 10.4282 20.6646 9.48474C20.6646 8.54126 21.2908 7.91228 22.2301 7.91228C23.1694 7.91228 23.7956 8.69851 23.7956 9.48474ZM15.655 5.86808C13.7764 5.86808 9.86265 5.71083 8.29715 6.33981C7.2013 6.81155 6.262 7.75503 5.9489 8.85576C5.3227 10.4282 5.47925 14.3594 5.47925 16.2463C5.47925 18.1333 5.3227 22.0645 5.9489 23.6369C6.262 24.7376 7.2013 25.6811 8.29715 25.9956C9.86265 26.6246 13.933 26.4674 15.655 26.4674C17.3771 26.4674 21.4474 26.6246 23.0129 25.9956C24.1087 25.5239 24.8915 24.7376 25.3611 23.6369C25.9873 21.9072 25.8308 17.976 25.8308 16.2463C25.8308 14.5166 25.9873 10.4282 25.3611 8.85576C25.048 7.75503 24.1087 6.81155 23.0129 6.49706C21.4474 5.71083 17.5336 5.86808 15.655 5.86808ZM28.179 16.2463V21.4355C28.179 23.3224 27.5528 25.2094 26.1439 26.7818C24.7349 28.1971 22.8563 28.826 20.8212 28.826H10.4889C8.61025 28.826 6.73165 28.1971 5.16615 26.7818C3.91375 25.3666 3.131 23.4797 3.131 21.4355V16.2463V11.0572C3.131 9.013 3.91375 7.12605 5.16615 5.71083C6.73165 4.45286 8.61025 3.66663 10.4889 3.66663H20.8212C22.6998 3.66663 24.5784 4.29561 26.1439 5.71083C27.3963 7.12605 28.179 9.013 28.179 11.0572V16.2463Z" fill="white"/>
</svg>
