<svg width="36" height="35" viewBox="0 0 36 35" fill="none" xmlns="http://www.w3.org/2000/svg">
<path d="M32.4433 8.69191C31.402 9.14308 30.2689 9.46779 29.1017 9.59425C30.3135 8.87113 31.221 7.72872 31.6538 6.38136C30.5167 7.06082 29.271 7.53726 27.972 7.78956C27.429 7.20655 26.7724 6.74209 26.0429 6.42514C25.3135 6.10818 24.5268 5.94552 23.732 5.94728C20.5164 5.94728 17.9302 8.56544 17.9302 11.7783C17.9302 12.2295 17.9847 12.6807 18.0731 13.1148C13.2581 12.8618 8.96376 10.5513 6.10879 7.01369C5.58858 7.90617 5.31597 8.92237 5.31933 9.95656C5.31933 11.98 6.34358 13.7642 7.90548 14.8135C6.98503 14.7771 6.08613 14.523 5.2819 14.0718V14.1436C5.2819 16.9771 7.27596 19.3252 9.93357 19.8652C9.43457 19.9954 8.92125 20.062 8.4057 20.0635C8.02798 20.0635 7.67069 20.0259 7.30999 19.9746C8.045 22.2852 10.1854 23.9634 12.7341 24.0181C10.74 25.5869 8.24236 26.5098 5.53031 26.5098C5.0437 26.5098 4.59453 26.4927 4.12834 26.438C6.70088 28.0957 9.75322 29.0527 13.0404 29.0527C23.7116 29.0527 29.5509 20.1729 29.5509 12.4653C29.5509 12.2124 29.5509 11.9595 29.5339 11.7066C30.6636 10.876 31.6538 9.84718 32.4433 8.69191Z" fill="white"/>
</svg>
